<svg width="28" height="24" viewBox="0 0 28 24" fill="none" xmlns="http://www.w3.org/2000/svg">
<path d="M1.69785 10.6463C1.69785 10.6463 13.9461 5.62167 18.194 3.85238C19.8224 3.14473 25.3447 0.880031 25.3447 0.880031C25.3447 0.880031 27.8935 -0.110688 27.6811 2.29544C27.6102 3.28626 27.0439 6.75392 26.4775 10.5047C25.6279 15.8125 24.7075 21.6156 24.7075 21.6156C24.7075 21.6156 24.5659 23.2433 23.3623 23.5264C22.1588 23.8095 20.1763 22.5357 19.8224 22.2525C19.5391 22.0403 14.5125 18.8556 12.6717 17.2986C12.1761 16.874 11.6097 16.0249 12.7424 15.034C15.2912 12.6986 18.3356 9.79709 20.1763 7.95709C21.026 7.1078 21.8755 5.12626 18.3356 7.53239C13.3089 11.0002 8.35296 14.2556 8.35296 14.2556C8.35296 14.2556 7.22014 14.9632 5.0962 14.3263C2.97216 13.6894 0.494192 12.8402 0.494192 12.8402C0.494192 12.8402 -1.20489 11.7786 1.69785 10.6463Z" fill="white"/>
</svg>
