<svg width="30" height="32" viewBox="0 0 30 32" fill="none" xmlns="http://www.w3.org/2000/svg">
<g clip-path="url(#clip0_143_2313)">
<path d="M8.13667 28.1586C8.13667 27.6447 8.13667 27.1309 8.13667 26.6171C8.14022 26.596 8.1395 26.5745 8.1345 26.5539C8.1295 26.5331 8.12036 26.5137 8.10761 26.4967C8.09485 26.4797 8.07881 26.4655 8.0604 26.455C8.04205 26.4445 8.02167 26.438 8.0007 26.4357C6.73833 26.0739 5.57319 25.4294 4.5921 24.5501C3.87726 23.894 3.28209 23.1165 2.83365 22.2529C2.20158 21.0054 1.78094 19.66 1.58914 18.2724C1.35151 16.5318 1.26898 14.7732 1.34254 13.0177C1.35868 12.1993 1.40016 11.3902 1.49235 10.5718C1.63937 9.01652 2.02824 7.4943 2.64467 6.06112C3.40585 4.29895 4.78674 2.88347 6.52109 2.08757C7.70251 1.54214 8.94542 1.14395 10.2224 0.901791C11.4746 0.662503 12.7424 0.515635 14.0158 0.462353C15.1636 0.421402 16.3128 0.438474 17.459 0.513505C19.0993 0.58336 20.7249 0.85747 22.2987 1.3296C23.4655 1.66894 24.5756 2.18225 25.5921 2.85253C26.5825 3.53845 27.3835 4.46742 27.9198 5.55193C28.5502 6.81858 28.9788 8.17765 29.1896 9.57896C29.3266 10.4109 29.4167 11.2501 29.4593 12.0924C29.5192 13.1363 29.5123 14.1849 29.4731 15.2242C29.4339 16.2635 29.3463 17.2726 29.2196 18.291C29.0594 19.8195 28.5937 21.2994 27.8506 22.6412C26.8835 24.3386 25.3341 25.6205 23.4949 26.2451C22.2372 26.6894 20.9386 27.0056 19.6184 27.1891C18.6528 27.3239 17.6848 27.4215 16.7122 27.4611C15.9679 27.496 15.2235 27.4867 14.479 27.475C14.0573 27.475 13.6379 27.4332 13.2184 27.3959C13.1772 27.3881 13.1347 27.3928 13.0961 27.4093C13.0575 27.4259 13.0247 27.4536 13.0018 27.489C12.1537 28.5167 11.2733 29.5164 10.386 30.5116C10.2244 30.6931 10.0372 30.8498 9.83057 30.9766C9.69492 31.0664 9.54021 31.1227 9.37899 31.1411C9.21776 31.1594 9.0545 31.1393 8.90242 31.0822C8.75033 31.0252 8.6137 30.9329 8.5035 30.8128C8.3933 30.6927 8.31262 30.548 8.26804 30.3906C8.1802 30.111 8.1366 29.8191 8.13897 29.5257C8.13667 29.0654 8.13667 28.612 8.13667 28.1586ZM9.1622 30.1093L9.27056 30.007L11.1949 27.8517C11.9355 27.0224 12.6753 26.1923 13.4143 25.3616C13.4506 25.3109 13.4997 25.2708 13.5563 25.2455C13.613 25.2202 13.6753 25.2105 13.737 25.2173C13.9881 25.2429 14.2394 25.2522 14.4929 25.2546C15.3687 25.2546 16.2444 25.2546 17.1202 25.1918C17.9153 25.129 18.7081 25.0314 19.4963 24.9058C20.3449 24.7568 21.185 24.562 22.0129 24.3222C23.8567 23.8223 25.2832 22.7528 26.1798 21.0206C26.709 19.9557 27.041 18.8021 27.1592 17.6167C27.2993 16.4995 27.3832 15.3758 27.4105 14.25C27.4513 12.8358 27.3556 11.4209 27.1246 10.0254C26.9645 9.01431 26.6764 8.02815 26.2674 7.09113C25.7465 5.92859 25.009 4.96601 23.8728 4.34754C22.1305 3.39891 20.2453 2.97575 18.3024 2.75952C17.7516 2.69907 17.2008 2.66652 16.6477 2.6456C15.5151 2.58669 14.3802 2.5929 13.2484 2.66419C12.4343 2.72514 11.6247 2.83539 10.8239 2.99435C9.64607 3.21095 8.50672 3.60273 7.44292 4.15689C6.82626 4.47126 6.26677 4.88869 5.78821 5.3915C5.01262 6.26605 4.4437 7.30664 4.12425 8.435C3.74529 9.74915 3.53843 11.1077 3.50892 12.476C3.43476 13.8443 3.4517 15.2161 3.55962 16.582C3.62676 17.395 3.76167 18.2007 3.96293 18.9908C4.26237 20.2221 4.84326 21.3655 5.65915 22.3296C6.53999 23.3133 7.67845 24.0258 8.94325 24.385C9.1023 24.4338 9.17378 24.4896 9.17378 24.671C9.1599 25.3406 9.17378 26.0102 9.17378 26.6799L9.1622 30.1093Z" fill="white"/>
<path d="M7.54938 9.3421C7.53321 8.83295 7.80746 8.46325 8.13938 8.13072C8.57702 7.70773 9.05924 7.33429 9.57743 7.01702C9.81375 6.87 10.0947 6.81403 10.3686 6.85929C10.6425 6.90454 10.8911 7.04808 11.0686 7.26352C11.6955 7.92833 12.2566 8.65332 12.744 9.42812C12.9854 9.77666 13.1676 10.1632 13.2833 10.5721C13.3296 10.7316 13.3326 10.9007 13.292 11.0618C13.2515 11.223 13.1689 11.3702 13.0529 11.4882C12.787 11.7515 12.5036 11.9962 12.2047 12.2206C12.0542 12.3416 11.9422 12.5047 11.8828 12.6895C11.8233 12.8743 11.8191 13.0726 11.8706 13.2598C12.0552 14.1389 12.4734 14.9507 13.0805 15.6082C13.8182 16.5168 14.7687 17.2256 15.8461 17.6705C16.1108 17.8078 16.4142 17.8497 16.7057 17.7891C16.8654 17.7452 17.0073 17.6516 17.1114 17.5217C17.2726 17.3148 17.4478 17.1148 17.593 16.894C17.7814 16.6184 18.0689 16.428 18.3944 16.3633C18.7198 16.2986 19.0575 16.3647 19.3353 16.5475C20.1165 17.0048 20.8541 17.5341 21.5386 18.1286C21.6999 18.268 21.8682 18.4029 22.0295 18.5447C22.2203 18.6916 22.3582 18.8976 22.4219 19.1311C22.4856 19.3646 22.4716 19.6128 22.3821 19.8374C22.2397 20.2154 22.0322 20.5648 21.769 20.8698C21.4421 21.3283 21.0256 21.7144 20.5452 22.0045C20.3156 22.1405 20.0576 22.2204 19.7919 22.2377C19.5262 22.2551 19.2601 22.2095 19.015 22.1044C17.1503 21.347 15.4081 20.3135 13.8457 19.0377C12.3174 17.7684 10.9819 16.2801 9.88167 14.62C8.95588 13.2458 8.21933 11.7511 7.69226 10.1768C7.63611 9.98641 7.58995 9.79313 7.55399 9.59784C7.54373 9.51302 7.54215 9.42732 7.54938 9.3421Z" fill="white"/>
<path d="M15.5062 6.86823C17.0663 6.89735 18.5667 7.47787 19.746 8.50868C20.9252 9.5395 21.7085 10.9551 21.9592 12.5089C22.0601 13.0737 22.1141 13.6462 22.1205 14.2201C22.1205 14.355 22.086 14.4526 21.9431 14.4666C21.8002 14.4805 21.7633 14.3573 21.7633 14.234C21.7847 13.0731 21.5485 11.922 21.0719 10.865C20.6706 9.99656 20.076 9.23321 19.3346 8.63435C18.5931 8.03549 17.7246 7.61732 16.7968 7.41232C16.3062 7.29771 15.8046 7.23846 15.3011 7.23558C15.252 7.23645 15.2031 7.23022 15.1559 7.21703C15.1157 7.20558 15.0814 7.1788 15.0603 7.14238C15.0393 7.10596 15.033 7.06265 15.0429 7.02168C15.0433 7.00226 15.0473 6.98305 15.0551 6.96524C15.0628 6.94743 15.074 6.93136 15.0879 6.91797C15.1019 6.90451 15.1183 6.89407 15.1363 6.88711C15.1543 6.88021 15.1735 6.87693 15.1927 6.87753C15.2965 6.86361 15.4025 6.86823 15.5062 6.86823Z" fill="white"/>
<path d="M19.955 13.1735C19.9472 12.5275 19.7896 11.8924 19.4946 11.319C19.1996 10.7457 18.7756 10.2501 18.2565 9.87186C17.6506 9.44251 16.9463 9.17606 16.21 9.09766C16.0855 9.08132 15.961 9.07436 15.8343 9.06044C15.7076 9.04644 15.6315 8.99302 15.643 8.8628C15.6545 8.73259 15.7352 8.68606 15.8735 8.69536C17.9154 8.82096 19.6531 9.98581 20.1878 12.1551C20.2855 12.5734 20.3343 13.0018 20.3329 13.4315C20.3329 13.4711 20.3329 13.5106 20.3329 13.5478C20.3329 13.6641 20.2592 13.7408 20.1463 13.7384C20.1212 13.7376 20.0966 13.7316 20.0739 13.7208C20.0513 13.7101 20.031 13.6948 20.0144 13.6758C19.9978 13.6569 19.9852 13.6347 19.9774 13.6108C19.9695 13.5867 19.9666 13.5614 19.9688 13.5362C19.9504 13.4269 19.955 13.3153 19.955 13.1735Z" fill="white"/>
<path d="M16.3775 10.5835C17.4975 10.6602 18.2788 11.2136 18.4932 12.4156C18.5191 12.5697 18.5376 12.7249 18.5484 12.8807C18.5484 13.0063 18.5208 13.1132 18.3849 13.1132C18.2489 13.1132 18.2028 13.0202 18.1981 12.8807C18.1969 12.4199 18.0562 11.9705 17.7949 11.5926C17.5202 11.2503 17.1259 11.0273 16.6932 10.9695C16.5965 10.9512 16.4988 10.9388 16.4005 10.9322C16.2392 10.9322 16.1493 10.8509 16.1701 10.7254C16.1908 10.5998 16.2876 10.5765 16.3775 10.5835Z" fill="white"/>
</g>
<defs>
<clipPath id="clip0_143_2313">
<rect width="28.9308" height="31.4661" fill="white" transform="translate(0.841309)"/>
</clipPath>
</defs>
</svg>
