<svg width="31" height="30" viewBox="0 0 31 30" fill="none" xmlns="http://www.w3.org/2000/svg">
<path d="M0.0739746 29.3451L2.23371 21.5235C0.491937 18.4766 -0.061441 14.9211 0.67512 11.5095C1.41168 8.09788 3.38878 5.05896 6.2436 2.95039C9.09843 0.841814 12.6395 -0.194968 16.217 0.030291C19.7945 0.25555 23.1685 1.72774 25.7198 4.17671C28.2712 6.62568 29.8287 9.88716 30.1066 13.3627C30.3846 16.8382 29.3642 20.2946 27.2329 23.0976C25.1016 25.9006 22.0022 27.8623 18.5035 28.6226C15.0048 29.3829 11.3415 28.8909 8.18574 27.2368L0.0739746 29.3451ZM8.57687 24.3099L9.07854 24.5992C11.3643 25.9167 14.034 26.4618 16.6717 26.1498C19.3093 25.8378 21.7668 24.6861 23.661 22.8742C25.5552 21.0623 26.7799 18.692 27.1441 16.1326C27.5083 13.5733 26.9916 10.9687 25.6745 8.72471C24.3575 6.48072 22.314 4.72342 19.8626 3.72664C17.4112 2.72986 14.6895 2.5496 12.1218 3.21395C9.554 3.8783 7.28436 5.34994 5.66653 7.39953C4.04871 9.44913 3.17359 11.9616 3.17753 14.5453C3.17538 16.6876 3.78469 18.7885 4.93763 20.614L5.25224 21.1184L4.04483 25.4839L8.57687 24.3099Z" fill="white"/>
<path fill-rule="evenodd" clip-rule="evenodd" d="M20.7528 16.5537C20.4587 16.323 20.1143 16.1607 19.746 16.079C19.3776 15.9973 18.9949 15.9985 18.6271 16.0824C18.0744 16.3056 17.7172 17.149 17.3601 17.5706C17.2848 17.6717 17.1742 17.7426 17.0489 17.77C16.9237 17.7974 16.7925 17.7794 16.6799 17.7195C14.6565 16.9488 12.9604 15.5357 11.8673 13.7094C11.774 13.5955 11.7299 13.4508 11.7442 13.3058C11.7584 13.1609 11.83 13.0269 11.9438 12.9322C12.3421 12.5488 12.6345 12.0739 12.7941 11.5515C12.8295 10.9752 12.6937 10.4012 12.4029 9.89787C12.1781 9.19223 11.7503 8.56392 11.17 8.08716C10.8707 7.95626 10.5389 7.91238 10.2145 7.96079C9.89009 8.0092 9.58704 8.14785 9.34189 8.36001C8.9163 8.71706 8.57848 9.16239 8.35334 9.66321C8.12819 10.164 8.02144 10.7076 8.04095 11.2538C8.04226 11.5606 8.08224 11.866 8.15999 12.1633C8.35743 12.8776 8.66107 13.56 9.0613 14.189C9.35005 14.6708 9.66511 15.1372 10.0051 15.5863C11.1101 17.0613 12.4991 18.3137 14.095 19.2739C14.8959 19.7618 15.7518 20.1585 16.6459 20.4562C17.5747 20.8656 18.6001 21.0227 19.6134 20.9109C20.1907 20.826 20.7377 20.6043 21.2062 20.2655C21.6748 19.9267 22.0505 19.4811 22.3003 18.9679C22.4471 18.6579 22.4916 18.3114 22.4279 17.9758C22.2748 17.2895 21.331 16.8844 20.7528 16.5537Z" fill="white"/>
</svg>
